<svg xmlns="http://www.w3.org/2000/svg" version="1.1" xmlns:xlink="http://www.w3.org/1999/xlink" xmlns:svgjs="http://svgjs.com/svgjs" width="466.000000pt" height="466.000000pt"><svg version="1.0" xmlns="http://www.w3.org/2000/svg" width="466.000000pt" height="466.000000pt" viewBox="0 0 466.000000 466.000000" preserveAspectRatio="xMidYMid meet">
<metadata>
Created by potrace 1.16, written by Peter Selinger 2001-2019
</metadata>
<g transform="translate(0.000000,466.000000) scale(0.100000,-0.100000)" fill="#000000" stroke="none">
<path d="M2233 4444 c2 -15 -4 -19 -26 -17 -15 1 -25 -2 -22 -7 10 -16 -29
-28 -128 -39 -53 -6 -114 -18 -135 -27 -22 -8 -44 -14 -49 -12 -8 2 -88 -33
-163 -73 -8 -5 -34 -17 -57 -28 -24 -11 -43 -25 -43 -30 0 -6 -6 -11 -13 -11
-7 0 -23 -10 -37 -23 -51 -47 -141 -117 -150 -117 -6 0 -19 -8 -29 -17 -10
-10 -43 -40 -73 -66 -29 -26 -63 -57 -74 -68 -29 -28 -77 -123 -64 -127 6 -2
4 -9 -4 -17 -7 -8 -17 -34 -20 -60 -4 -25 -11 -45 -17 -45 -5 0 -9 -5 -9 -10
0 -6 -9 -30 -20 -52 -11 -23 -20 -47 -20 -53 0 -7 -11 -28 -24 -48 -13 -19
-22 -38 -18 -41 3 -3 1 -6 -3 -6 -5 0 -19 12 -31 28 -12 15 -26 24 -30 20 -4
-4 -2 -14 4 -21 8 -10 8 -17 1 -24 -8 -8 1 -17 30 -34 45 -25 43 -20 45 -146
1 -63 -1 -73 -16 -73 -10 0 -18 5 -18 11 0 5 -4 8 -9 5 -5 -3 -12 1 -15 10 -3
9 -12 14 -20 11 -7 -3 -25 6 -39 19 -14 13 -33 24 -42 24 -8 0 -15 6 -15 13 0
9 -3 8 -9 -2 -6 -9 -11 -10 -15 -3 -4 6 -14 8 -22 5 -10 -4 -29 10 -56 41 -32
36 -47 46 -72 46 -17 0 -40 7 -50 15 -11 8 -27 15 -37 15 -9 0 -19 6 -22 14
-3 7 -20 16 -39 19 -18 3 -51 10 -73 16 -22 6 -56 14 -75 16 -19 3 -37 9 -40
14 -3 4 -23 14 -45 21 -22 7 -49 17 -59 22 -42 22 -155 12 -182 -15 -10 -9
-34 12 -34 29 0 8 -2 14 -5 14 -6 0 -45 -38 -45 -44 0 -9 67 -75 88 -85 31
-16 77 -66 163 -174 91 -114 81 -103 212 -238 62 -65 125 -132 139 -150 14
-19 41 -51 59 -72 19 -20 47 -53 64 -72 16 -19 43 -42 60 -51 16 -8 48 -26 70
-39 71 -42 99 -52 170 -58 93 -8 153 -33 162 -65 3 -14 14 -34 25 -46 10 -12
25 -28 33 -36 8 -9 22 -51 31 -93 9 -42 21 -77 26 -77 4 0 8 -9 8 -20 0 -11 7
-23 15 -26 8 -4 15 -14 15 -24 0 -9 9 -25 21 -36 15 -14 19 -26 15 -48 -7 -32
23 -89 54 -106 10 -5 21 -23 25 -39 3 -16 13 -32 21 -35 8 -3 14 -15 14 -26 0
-14 6 -20 18 -18 14 3 16 -4 14 -39 -4 -48 5 -68 65 -141 23 -30 43 -57 43
-61 0 -10 104 -61 124 -61 26 0 131 -42 139 -56 4 -8 17 -14 27 -14 12 0 20
-7 20 -16 0 -13 3 -14 15 -4 19 16 47 6 79 -30 14 -17 30 -30 34 -30 12 0 72
-97 72 -117 0 -14 -6 -12 -29 12 -38 39 -86 75 -100 75 -6 0 -11 5 -11 10 0 6
-9 10 -20 10 -11 0 -20 4 -20 8 0 5 -24 14 -52 22 -29 7 -60 17 -68 21 -13 7
-46 16 -77 21 -36 5 -121 42 -133 57 -8 10 -47 30 -87 45 -39 15 -77 33 -83
41 -6 7 -21 16 -34 19 -27 7 -53 41 -58 77 -3 22 -7 24 -63 23 -38 -1 -76 -9
-105 -22 -65 -30 -178 -65 -300 -92 -30 -7 -68 -18 -85 -25 -78 -33 -158 -44
-170 -24 -8 12 57 77 72 72 5 -2 21 7 35 20 14 13 59 45 99 72 41 26 86 56
101 66 15 11 31 19 36 19 5 0 15 7 22 15 10 12 10 15 -3 15 -9 0 -19 -5 -22
-10 -4 -6 -10 -8 -13 -6 -4 2 -34 -9 -67 -25 -33 -16 -65 -29 -71 -29 -6 0
-17 -7 -24 -15 -7 -8 -16 -12 -21 -10 -4 3 -16 2 -26 -4 -10 -5 -31 -15 -47
-22 -50 -24 -66 -33 -66 -41 0 -5 -8 -8 -19 -8 -10 0 -24 -7 -31 -16 -8 -8
-34 -27 -59 -42 -25 -14 -50 -32 -54 -39 -4 -7 -17 -13 -27 -13 -10 0 -22 -5
-25 -11 -4 -5 -12 -8 -18 -6 -14 4 -47 -23 -47 -40 0 -7 -13 -19 -29 -28 -16
-8 -31 -18 -33 -22 -1 -5 -22 -20 -46 -36 -43 -28 -48 -42 -44 -115 1 -18 -3
-22 -19 -17 -16 5 -20 1 -25 -24 -4 -18 -10 -34 -14 -36 -5 -3 -6 -14 -3 -24
3 -10 0 -22 -6 -25 -11 -7 24 -76 39 -76 4 0 27 -30 51 -67 24 -37 60 -83 80
-103 20 -19 40 -46 44 -59 6 -21 5 -23 -14 -18 -14 3 -21 0 -21 -9 0 -8 7 -14
16 -14 13 0 15 -7 10 -32 -4 -21 -3 -28 3 -19 7 11 11 10 19 -5 9 -16 12 -16
27 -4 15 12 19 11 35 -10 11 -14 25 -44 32 -67 6 -23 15 -40 19 -37 4 2 9 -1
11 -8 2 -6 14 5 27 25 27 43 98 107 120 107 9 0 27 9 41 20 14 11 31 20 38 20
21 0 13 20 -8 20 -24 0 -26 13 -4 34 21 21 27 21 117 -14 89 -34 132 -37 232
-14 39 8 90 18 115 20 25 3 52 8 60 11 19 8 197 16 315 16 114 -1 245 -13 268
-25 10 -5 46 -9 80 -9 34 0 76 -4 92 -9 17 -5 48 -11 70 -15 22 -3 51 -7 65
-9 81 -13 305 -7 515 14 225 23 334 23 515 0 96 -12 182 -26 192 -31 10 -5 18
-8 18 -6 0 3 24 -1 53 -8 55 -13 81 -10 203 18 52 12 65 12 88 0 27 -14 33
-32 17 -48 -6 -7 18 -10 67 -10 87 0 152 -24 174 -64 11 -20 10 -25 -5 -36
-18 -13 -17 -14 3 -38 22 -25 28 -26 65 -14 22 8 65 90 65 125 0 23 44 75 153
180 21 20 48 58 61 83 12 25 32 59 43 75 11 16 26 45 33 64 7 19 19 42 26 50
12 15 4 52 -14 64 -5 3 -7 17 -4 31 3 16 0 25 -8 25 -7 0 -10 8 -7 20 3 11 -3
29 -14 41 -10 12 -19 30 -19 39 0 9 -9 25 -20 35 -11 10 -20 23 -20 28 0 5
-29 39 -65 74 -36 35 -65 68 -65 74 0 6 -8 8 -19 4 -12 -3 -21 0 -25 10 -3 8
-14 15 -24 15 -11 0 -25 7 -32 15 -7 8 -19 15 -26 15 -8 0 -14 5 -14 10 0 6
-6 10 -14 10 -8 0 -26 14 -39 30 -14 17 -28 30 -31 30 -2 0 -17 5 -33 12 -15
6 -30 12 -33 13 -3 1 -18 7 -33 13 -16 7 -33 12 -38 12 -5 0 -9 5 -9 10 0 6
-6 10 -13 10 -7 0 -18 5 -24 11 -7 7 -26 13 -44 14 -17 2 -41 7 -53 13 -29 14
-119 46 -131 47 -5 1 -22 6 -36 12 -15 7 -46 15 -70 18 -24 4 -50 10 -59 14
-31 17 -42 0 -15 -25 14 -13 29 -24 34 -24 8 0 222 -138 263 -169 14 -12 30
-21 36 -21 5 0 17 -9 27 -20 10 -11 23 -20 30 -20 15 0 65 -52 65 -68 0 -7 -3
-12 -6 -12 -24 0 -151 24 -159 30 -5 4 -32 11 -60 15 -27 4 -54 10 -60 15 -5
4 -26 10 -45 12 -34 5 -160 48 -170 58 -4 5 -129 40 -197 57 -18 4 -26 -3 -44
-38 -26 -52 -48 -73 -100 -96 -22 -9 -39 -20 -39 -25 0 -4 -8 -8 -19 -8 -10 0
-30 -9 -43 -20 -29 -22 -154 -81 -213 -100 -22 -7 -49 -16 -60 -21 -11 -4 -35
-11 -53 -14 -53 -11 -163 -64 -209 -102 -46 -38 -56 -29 -24 23 20 33 100 114
112 114 5 0 25 10 46 23 47 28 101 47 133 47 58 1 139 35 187 80 50 47 93 116
86 137 -2 6 10 22 26 34 17 13 31 27 31 32 0 6 14 23 30 39 17 15 30 35 30 43
0 9 6 12 15 9 9 -4 15 0 15 10 0 8 11 23 24 31 25 17 46 62 46 100 0 12 8 33
19 46 24 31 62 143 60 177 -1 15 -1 32 1 37 5 19 -2 180 -7 168 -7 -18 -23
-16 -23 2 0 8 3 15 8 15 9 0 32 49 32 68 0 20 70 82 94 83 15 0 16 2 6 6 -8 3
-17 9 -20 13 -9 13 -53 23 -46 11 4 -6 2 -11 -3 -11 -6 0 -11 9 -11 20 0 11
-5 20 -10 20 -15 0 16 56 35 63 8 4 15 15 15 26 0 21 10 33 64 71 19 14 37 36
41 48 4 18 9 21 19 13 7 -6 16 -8 20 -4 7 8 24 12 74 20 17 3 32 9 32 14 0 5
12 14 26 19 14 6 28 19 31 30 6 24 16 25 37 4 19 -19 20 -26 4 -42 -6 -6 -9
-15 -5 -18 4 -4 18 5 32 20 14 15 25 22 25 15 0 -8 4 -8 13 -2 6 6 23 13 37
15 14 3 34 9 44 13 13 6 17 5 13 -2 -4 -6 4 -13 18 -15 21 -4 26 0 35 28 7 21
18 34 29 34 9 0 22 5 28 11 14 14 36 2 27 -14 -5 -8 -3 -8 7 1 19 18 29 15 29
-8 0 -11 -8 -24 -17 -27 -10 -4 -20 -10 -23 -14 -3 -5 -20 -9 -38 -11 -30 -2
-32 -5 -27 -27 6 -22 5 -23 -11 -10 -16 13 -17 11 -10 -31 8 -49 14 -60 24
-44 4 5 24 20 45 33 20 12 40 33 43 46 3 13 14 25 25 28 11 3 19 14 19 26 0
12 6 21 13 21 20 0 120 101 158 160 9 14 27 36 40 51 13 14 30 36 37 50 7 13
32 39 56 56 38 30 67 53 103 83 7 5 16 10 21 10 5 0 19 11 32 25 13 14 26 21
30 16 3 -6 21 -13 40 -16 19 -3 51 -8 71 -11 46 -7 55 6 33 51 -12 26 -31 42
-69 60 -28 14 -59 25 -68 25 -10 0 -17 4 -17 8 0 10 -3 10 -77 18 -36 4 -53
10 -53 20 0 8 -7 14 -15 14 -8 0 -15 -5 -15 -11 0 -7 -12 -9 -33 -5 -34 6 -71
-14 -132 -71 -27 -26 -93 -56 -105 -48 -6 3 -10 1 -10 -4 0 -6 -5 -11 -11 -11
-6 0 -17 -7 -25 -15 -9 -8 -30 -15 -48 -15 -20 0 -40 -8 -51 -20 -9 -10 -20
-18 -24 -17 -3 0 -15 -4 -27 -10 -11 -7 -45 -14 -75 -17 -30 -3 -72 -11 -94
-17 -22 -6 -67 -15 -100 -21 -55 -9 -125 -43 -125 -60 0 -5 -6 -8 -13 -8 -10
0 -17 36 -25 145 -6 80 -9 152 -6 159 3 8 -2 28 -10 45 -9 16 -16 42 -16 56 0
14 -4 24 -9 20 -5 -3 -12 3 -16 14 -3 11 -12 22 -20 25 -8 3 -22 20 -31 37
-30 59 -88 129 -106 129 -10 0 -24 11 -30 25 -6 14 -14 25 -18 25 -7 0 -43 32
-131 115 -15 14 -34 25 -43 25 -10 0 -13 6 -10 15 5 11 -1 15 -19 15 -14 0
-29 5 -32 10 -3 6 -13 10 -22 10 -9 0 -23 8 -32 18 -9 9 -25 19 -36 20 -11 2
-32 13 -46 23 -15 10 -37 19 -48 19 -12 0 -21 4 -21 10 0 9 -66 26 -83 22 -17
-5 -47 35 -41 53 6 14 3 16 -15 10 -16 -5 -27 -1 -37 12 -12 15 -15 16 -23 3
-7 -9 -6 -19 2 -29 8 -10 3 -8 -16 3 -22 15 -30 16 -42 6 -11 -9 -25 -10 -57
-2 -30 8 -46 8 -55 0 -16 -13 -17 4 -1 20 19 19 3 23 -28 7 -27 -14 -29 -13
-32 3 -5 24 -20 38 -19 16z m-180 -144 c3 -13 11 -18 23 -15 11 2 38 9 62 15
34 8 48 7 70 -4 29 -16 29 -17 -43 -21 -68 -4 -75 -6 -75 -19 0 -8 12 -16 27
-18 14 -2 28 -9 30 -15 5 -15 -65 -15 -74 0 -3 5 -9 4 -13 -3 -6 -9 -22 -9
-71 -1 -35 6 -72 12 -82 14 -62 8 26 60 91 54 38 -4 42 -3 37 14 -4 11 -2 19
3 19 5 0 12 -9 15 -20z m107 -185 c9 5 11 4 6 -3 -4 -8 0 -12 11 -12 10 0 29
-7 42 -16 23 -16 23 -16 16 7 -7 20 -6 21 7 9 28 -29 18 -35 -52 -35 -40 0
-70 4 -70 10 0 5 -5 2 -11 -8 -8 -14 -8 -22 0 -30 8 -8 11 -8 11 2 0 7 5 9 10
6 34 -21 -38 -126 -76 -111 -9 4 -24 0 -33 -8 -21 -19 -71 -31 -71 -17 0 6 11
18 25 27 14 9 25 23 25 30 0 20 -17 17 -29 -3 -16 -28 -13 -10 4 25 13 26 23
31 65 37 28 4 50 11 50 16 0 11 -145 2 -170 -11 -23 -12 -82 0 -88 18 -2 7 8
12 27 13 17 1 43 3 59 5 15 2 50 5 77 7 40 2 52 7 60 25 6 15 20 22 45 24 19
2 38 -1 41 -6 4 -5 12 -5 19 -1z m-486 -379 c21 -9 44 -16 51 -16 19 0 26 -12
14 -27 -20 -23 -18 -83 3 -94 10 -5 18 -21 18 -34 0 -23 34 -65 53 -65 5 0 11
9 14 20 3 11 9 18 13 15 4 -2 22 1 41 7 19 6 75 14 124 17 79 5 90 8 88 24 -1
15 4 17 24 12 22 -5 25 -3 20 14 -6 26 7 36 23 16 6 -7 18 -11 26 -8 8 3 14 0
14 -7 0 -9 3 -10 13 -1 8 6 17 8 20 4 12 -12 61 -12 68 -1 5 8 15 6 33 -6 18
-11 26 -13 26 -4 0 9 3 9 12 0 10 -10 10 -15 0 -21 -11 -7 -11 -9 1 -14 8 -3
21 3 30 14 9 10 22 19 29 19 9 0 9 -3 0 -12 -21 -21 -13 -29 23 -25 19 2 43
-2 53 -9 14 -10 28 -11 51 -4 37 10 57 5 65 -17 4 -8 13 -13 20 -10 8 3 17 -1
20 -9 3 -8 16 -14 29 -14 14 0 31 -10 40 -22 14 -23 15 -23 45 -5 17 9 36 17
43 17 7 0 21 8 31 17 17 15 19 15 32 -2 7 -10 20 -16 27 -13 18 7 53 -17 46
-30 -4 -4 3 -16 15 -26 15 -13 17 -21 9 -29 -20 -20 -13 -82 13 -112 13 -15
29 -45 35 -66 7 -21 16 -39 21 -39 6 0 10 -6 10 -14 0 -7 9 -16 20 -19 17 -4
20 -14 21 -59 0 -39 3 -48 9 -33 12 27 12 24 9 -220 -1 -115 -1 -220 -1 -232
0 -27 -16 -30 -25 -6 -6 14 -7 13 -14 -5 -4 -11 -18 -26 -30 -33 -19 -10 -21
-9 -16 5 4 10 1 16 -8 16 -8 0 -15 -5 -15 -11 0 -6 -6 -9 -14 -6 -8 3 -16 1
-19 -6 -2 -6 -6 -3 -10 7 -4 9 -3 15 2 11 5 -3 12 -1 16 5 3 5 1 10 -5 10 -7
0 -9 7 -6 17 6 15 5 15 -13 -1 -15 -14 -29 -17 -55 -12 -24 5 -38 2 -49 -9
-17 -17 -64 -20 -87 -5 -16 10 -15 12 21 27 31 13 57 86 39 108 -14 17 -4 55
16 55 8 0 14 5 14 10 0 6 -10 8 -22 5 -13 -2 -42 -9 -66 -14 -23 -4 -45 -11
-48 -14 -3 -3 -19 -1 -35 5 -17 6 -28 12 -27 14 6 5 121 35 157 40 19 2 40 9
47 15 7 6 26 8 42 4 35 -7 64 18 35 30 -10 5 -20 9 -23 9 -3 1 -35 16 -73 34
-37 18 -72 30 -77 27 -6 -3 -10 -2 -10 4 0 12 -103 34 -127 28 -10 -3 -31 -8
-47 -12 -27 -6 -28 -5 -11 12 13 13 37 18 86 20 99 4 124 8 124 18 0 5 -4 10
-10 11 -5 0 -12 2 -15 3 -3 1 -35 3 -73 5 -78 3 -106 19 -62 36 35 13 25 24
-23 25 -43 0 -56 27 -22 45 45 24 280 -2 305 -34 6 -7 18 -15 28 -19 9 -3 17
-11 17 -16 0 -5 13 -16 28 -23 27 -14 28 -14 44 23 9 21 12 39 7 41 -5 2 -2
15 6 31 13 25 11 31 -6 29 -3 -1 -4 10 -1 23 5 26 -39 90 -53 77 -5 -4 -5 3
-2 16 5 21 2 22 -58 22 -36 0 -67 5 -71 11 -4 7 -24 9 -55 5 -27 -4 -68 -1
-94 5 -38 10 -48 9 -58 -3 -17 -21 -91 -48 -131 -48 -18 0 -51 -7 -72 -16 -35
-15 -39 -15 -50 0 -6 9 -19 16 -28 16 -9 0 -16 5 -16 11 0 13 -86 6 -122 -11
-32 -15 -98 -5 -98 15 0 18 -22 24 -37 9 -17 -16 -80 12 -87 39 -4 15 -11 18
-28 14 -18 -5 -27 0 -41 24 -9 17 -17 39 -17 49 0 13 -5 17 -15 14 -8 -4 -15
-1 -15 5 0 6 -7 11 -16 11 -13 0 -14 -3 -5 -13 6 -8 8 -17 4 -20 -9 -10 19
-39 33 -33 16 6 22 -10 20 -62 -1 -30 3 -41 12 -37 15 6 15 -7 1 -39 -10 -21
-17 -24 -40 -19 -18 3 -29 1 -29 -6 0 -16 -45 -14 -59 3 -9 10 -25 13 -51 10
-31 -4 -39 -1 -43 13 -4 15 -5 15 -6 -2 -1 -19 -6 -20 -78 -17 -43 3 -81 9
-85 15 -4 7 -12 6 -23 -3 -15 -12 -18 -12 -26 3 -12 21 -26 22 -45 2 -23 -22
-37 -19 -29 8 10 35 14 101 5 112 -4 6 -4 19 1 30 4 11 8 16 8 10 1 -5 8 1 17
13 22 32 38 28 31 -8 -7 -31 9 -43 19 -15 4 8 12 15 20 15 8 0 14 5 14 10 0 6
-7 10 -15 10 -8 0 -15 9 -15 20 0 12 7 20 16 20 9 0 14 7 12 18 -2 9 -11 17
-21 17 -9 0 -17 4 -17 8 0 4 0 13 0 21 0 8 12 17 27 21 15 3 23 9 17 13 -24
18 -34 42 -28 66 5 22 9 24 26 15 17 -9 19 -8 14 9 -5 14 -1 21 16 27 l23 8
-22 4 c-54 11 0 52 62 48 17 -1 47 -10 69 -19z m-1228 -535 c21 -21 57 -58 80
-82 44 -48 84 -76 84 -59 0 18 22 10 27 -10 3 -11 14 -20 24 -20 22 0 89 -62
89 -83 0 -30 27 -68 56 -77 21 -7 35 -21 44 -46 11 -26 19 -34 32 -31 13 4 18
-1 18 -14 0 -20 28 -39 48 -32 8 3 10 -1 6 -11 -7 -17 -54 -22 -54 -6 0 6 -9
10 -20 10 -11 0 -20 5 -20 11 0 8 -5 8 -15 -1 -11 -9 -15 -9 -15 -1 0 16 -55
69 -77 73 -10 2 -22 12 -28 23 -34 68 -135 175 -165 175 -21 0 -70 54 -70 76
0 9 -4 13 -9 9 -5 -3 -13 5 -17 17 -4 12 -24 40 -46 61 -34 34 -42 57 -19 57
4 0 25 -17 47 -39z m1151 -138 c-34 -9 -10 -28 39 -31 27 -2 53 -7 58 -12 9
-9 44 6 59 25 5 6 6 0 2 -12 -6 -23 9 -41 20 -23 8 13 25 3 25 -14 0 -8 -13
-16 -30 -19 -29 -6 -43 -36 -17 -38 6 -1 22 -3 35 -4 26 -3 66 -35 43 -35 -7
0 -21 5 -32 11 -13 7 -25 7 -32 1 -7 -5 -51 -10 -99 -10 -48 0 -91 -3 -97 -6
-15 -9 -23 10 -8 21 6 5 31 15 55 22 66 19 52 33 -29 26 -54 -4 -73 -2 -85 9
-15 15 -6 28 24 32 26 4 24 13 -3 20 l-27 7 38 18 c22 10 48 18 59 18 18 -1
18 -2 2 -6z m657 -142 c12 -1 16 -6 12 -17 -7 -19 12 -47 25 -38 5 3 9 -1 9
-8 0 -7 5 -20 10 -28 9 -13 11 -13 20 0 8 13 10 12 10 -2 0 -10 7 -18 16 -18
9 0 14 -6 11 -14 -3 -7 3 -20 13 -29 30 -25 13 -69 -31 -80 -19 -5 -39 -13
-46 -18 -6 -6 -14 -6 -16 -2 -3 5 -49 10 -102 11 -53 1 -105 7 -115 12 -26 14
-40 12 -40 -5 0 -22 -31 -18 -37 5 -10 39 -74 15 -72 -27 0 -16 1 -16 10 2 l9
20 -4 -20 c-8 -33 -35 -101 -36 -88 0 20 -30 3 -30 -17 0 -11 -4 -22 -10 -25
-5 -3 -10 1 -10 9 0 16 -20 24 -20 9 -1 -24 -18 -33 -43 -24 -22 9 -27 7 -32
-9 -4 -11 -11 -20 -16 -20 -18 0 -9 31 19 59 15 16 41 45 57 66 17 20 39 46
50 58 11 12 18 30 17 40 -5 25 26 52 60 53 25 2 27 -1 22 -25 -7 -26 -7 -26
13 -6 11 11 18 26 15 33 -2 7 -1 12 4 10 20 -6 54 28 54 53 0 15 7 30 16 33 8
3 12 11 9 16 -4 7 2 9 18 5 14 -4 28 -2 32 4 3 6 11 9 16 6 5 -4 19 1 31 9 12
8 31 14 42 11 12 -2 29 -4 40 -4z m170 -276 c14 -13 26 -29 26 -35 0 -5 5 -10
10 -10 6 0 10 -8 10 -18 0 -10 13 -31 30 -47 16 -16 33 -43 36 -62 3 -18 11
-33 18 -33 6 0 20 -9 29 -21 15 -17 16 -26 7 -54 -15 -47 -30 -55 -88 -52 -46
2 -52 4 -52 25 0 12 -4 22 -10 22 -5 0 -10 -10 -10 -22 0 -18 -2 -20 -10 -8
-8 12 -10 12 -16 -3 -3 -9 -16 -17 -28 -17 -12 0 -26 -4 -32 -10 -5 -5 -29
-12 -53 -15 -24 -3 -48 -8 -52 -11 -5 -3 -9 5 -9 17 0 18 -2 19 -15 9 -13 -10
-15 -9 -15 10 0 17 -4 21 -17 15 -10 -4 -29 -7 -42 -6 -19 1 -22 -3 -18 -19 3
-11 1 -20 -4 -20 -5 0 -9 14 -9 30 0 17 -4 30 -9 30 -5 0 -7 9 -4 21 4 14 9
17 16 10 17 -17 27 -13 27 9 0 11 -7 20 -15 20 -22 0 -18 21 5 27 11 3 20 12
20 19 0 14 12 18 38 15 7 -1 12 9 12 23 0 20 13 34 58 63 31 21 75 57 97 80
22 23 40 42 41 42 1 1 13 -10 28 -24z m-456 -83 c2 -15 -2 -22 -13 -22 -9 0
-15 -5 -13 -11 2 -6 8 -10 13 -10 14 0 34 -39 35 -65 0 -14 -8 -24 -22 -27
-21 -6 -21 -7 -5 -25 24 -26 26 -65 5 -70 -13 -3 -16 1 -11 14 5 14 2 16 -20
10 -19 -4 -27 -2 -27 6 0 7 -10 18 -22 23 -25 11 -27 34 -10 111 11 53 19 64
39 57 12 -5 15 -2 10 10 -6 16 9 28 28 23 6 -1 11 -12 13 -24z"></path>
<path d="M4435 1042 c-3 -9 -31 -44 -63 -78 -59 -63 -76 -90 -86 -135 -5 -23
-35 -44 -58 -40 -5 1 -8 -5 -8 -12 0 -8 -18 -33 -40 -57 -22 -24 -39 -48 -38
-54 2 -6 -23 -44 -55 -83 -44 -55 -64 -73 -82 -73 -18 0 -25 5 -25 20 0 11 7
23 15 26 22 9 18 34 -5 34 -11 0 -23 7 -27 16 -4 12 -8 13 -14 3 -6 -10 -11
-7 -18 11 -22 52 -32 58 -108 56 -61 -1 -73 1 -76 16 -3 11 5 25 21 37 l26 19
-29 -5 c-17 -2 -52 -5 -80 -7 -27 -1 -68 -8 -90 -14 -32 -9 -140 -10 -140 -2
0 3 -46 11 -67 11 -10 0 -18 5 -18 11 0 6 -6 6 -15 -2 -11 -9 -15 -9 -15 -1 0
7 -10 10 -25 7 -16 -3 -28 1 -34 11 -5 10 -11 12 -15 5 -10 -16 -66 16 -59 33
6 17 19 20 27 7 6 -10 104 -7 113 2 6 6 -22 10 -41 7 -5 -1 -16 5 -25 12 -10
9 -34 14 -66 12 -27 -1 -63 2 -80 7 -16 4 -54 9 -83 10 -29 1 -55 5 -58 10 -3
5 -8 6 -12 4 -7 -4 -252 -24 -382 -31 -41 -2 -75 -5 -75 -5 0 -2 -125 -9 -224
-13 -30 -1 -56 -7 -58 -13 -4 -12 150 -11 267 2 134 15 530 29 530 18 0 -5 36
-8 80 -8 44 1 80 -2 80 -5 0 -4 -9 -14 -19 -23 -21 -18 -58 -20 -79 -5 -7 5
-43 9 -80 8 -37 -1 -95 -3 -130 -4 -34 -1 -62 -4 -62 -7 0 -3 -39 -5 -88 -5
-48 1 -100 -3 -116 -7 -18 -5 -35 -3 -43 3 -9 8 -17 8 -25 1 -16 -13 -109 -13
-125 0 -8 6 -22 2 -41 -12 -21 -15 -36 -19 -55 -15 -15 4 -27 11 -27 17 0 5
-10 2 -22 -6 -16 -11 -26 -12 -41 -4 -11 5 -45 8 -75 6 -31 -3 -72 -1 -92 3
-19 5 -82 12 -140 15 -58 3 -110 10 -116 15 -6 5 -18 7 -27 3 -8 -3 -37 1 -64
9 -28 8 -56 12 -63 7 -13 -8 -92 -6 -108 4 -5 3 -21 3 -35 0 -44 -7 -127 -11
-127 -5 0 3 -11 7 -25 7 -14 1 -25 -2 -25 -6 0 -4 -24 -6 -52 -5 -29 1 -60 -2
-69 -6 -9 -4 -28 -10 -42 -13 -14 -2 -34 -9 -43 -14 -12 -7 -26 -6 -41 1 -18
8 -27 7 -40 -5 -24 -20 -51 -29 -58 -18 -3 5 -21 6 -40 3 -19 -3 -42 -2 -52 2
-10 5 -26 7 -37 6 -10 -2 -22 2 -25 7 -3 6 -38 12 -76 13 -69 3 -70 2 -84 -27
-8 -16 -22 -36 -31 -44 -10 -8 -29 -33 -44 -54 -14 -21 -26 -33 -26 -26 0 23
-28 -9 -35 -41 -4 -16 -11 -29 -16 -29 -6 0 -9 -6 -7 -13 2 -6 0 -13 -5 -14
-21 -8 -35 0 -48 24 -8 16 -20 32 -26 36 -7 4 -13 17 -13 27 0 11 -7 20 -15
20 -8 0 -15 8 -15 18 0 30 -39 102 -56 102 -8 0 -12 5 -9 11 4 5 -1 19 -11 30
-13 14 -20 16 -31 8 -10 -9 -13 -5 -13 20 0 24 -5 32 -25 37 -14 3 -25 10 -25
15 0 22 -128 152 -144 146 -14 -6 -62 -206 -59 -247 1 -8 -5 -18 -12 -23 -8
-4 -12 -14 -9 -21 3 -8 1 -17 -5 -21 -7 -4 -11 -41 -10 -93 l1 -87 15 42 c8
24 18 43 21 43 4 0 9 -26 10 -57 2 -32 7 -62 12 -68 6 -7 2 -18 -11 -29 -15
-12 -18 -21 -11 -28 13 -13 32 -1 32 21 0 21 19 41 38 41 8 0 25 9 39 20 15
11 27 19 29 17 2 -2 -4 -27 -14 -57 -17 -55 -49 -100 -71 -100 -7 0 -9 -5 -5
-11 3 -6 17 -9 31 -6 17 3 28 -1 36 -14 7 -11 16 -19 20 -19 9 0 37 -25 37
-34 0 -2 -9 -4 -19 -3 -13 1 -17 6 -13 17 5 13 3 13 -11 2 -8 -8 -13 -20 -11
-27 8 -21 -66 -33 -80 -13 -6 8 -19 14 -28 12 -11 -1 -18 4 -18 14 0 8 3 13 6
9 3 -3 17 4 30 16 17 15 21 23 12 28 -7 4 -18 3 -25 -3 -10 -8 -13 -5 -13 13
l0 23 -20 -22 c-16 -17 -20 -34 -19 -94 0 -50 3 -67 9 -53 5 11 9 16 10 10 1
-5 5 0 10 13 l10 23 31 -23 c22 -16 29 -29 26 -45 -2 -12 0 -21 6 -20 14 3 35
-65 27 -87 -5 -15 -9 -16 -15 -7 -6 11 -9 11 -16 0 -7 -11 -9 -10 -9 4 0 11
-8 17 -22 18 -22 0 -22 1 -3 9 11 5 14 9 6 9 -7 1 -11 7 -8 15 3 8 -1 20 -9
26 -14 12 -16 10 -18 -20 -1 -8 -9 -14 -19 -14 -9 1 -17 -2 -17 -7 0 -5 8 -9
18 -9 9 0 24 -6 34 -13 18 -14 29 -72 13 -72 -5 0 -9 6 -9 12 1 7 -2 13 -7 13
-5 0 -9 -8 -9 -17 -1 -16 -2 -16 -16 2 -8 11 -13 24 -10 31 2 6 0 17 -5 25 -6
9 -9 -3 -9 -38 l0 -51 142 -1 c79 -1 158 3 176 8 19 6 32 6 32 0 0 -5 29 -9
65 -9 l65 0 -3 47 c-2 44 0 48 28 57 17 6 34 17 38 24 5 7 12 10 17 7 5 -3 1
-23 -10 -43 -11 -20 -20 -42 -20 -49 0 -7 -6 -13 -14 -13 -8 0 -17 -7 -20 -15
-5 -13 5 -15 62 -14 37 1 72 6 79 11 7 5 17 7 23 3 6 -3 10 3 10 16 0 21 1 21
25 -5 22 -24 30 -26 108 -26 66 0 86 3 91 15 3 8 10 15 15 15 6 0 8 -7 5 -15
-5 -12 4 -15 44 -15 43 0 55 5 82 32 17 17 38 42 47 55 18 27 33 30 33 7 0 -9
-9 -18 -20 -21 -23 -6 -27 -23 -5 -23 9 0 15 -9 15 -25 0 -19 5 -25 21 -25 18
0 21 5 16 32 -5 34 7 68 23 68 6 0 20 -10 32 -22 19 -19 20 -22 5 -33 -10 -7
-17 -18 -17 -26 1 -10 4 -9 11 4 13 23 36 22 44 -3 6 -19 15 -20 236 -20 197
0 229 2 229 15 0 8 7 15 15 15 9 0 12 -6 8 -17 -4 -11 -3 -14 5 -9 7 4 12 19
12 34 l1 27 14 -25 14 -25 1 28 c0 32 20 37 20 5 0 -17 3 -19 9 -9 11 17 23
-1 15 -23 -5 -12 1 -16 24 -16 29 0 30 2 25 34 -3 19 0 42 6 52 9 16 10 13 11
-18 0 -20 4 -39 9 -42 4 -3 6 6 3 21 -3 18 -1 24 7 19 6 -4 11 -16 11 -28 0
-14 5 -18 15 -14 18 7 20 -10 3 -18 -13 -5 501 0 535 5 9 2 17 7 17 12 0 6 10
19 23 31 29 26 47 13 40 -27 -4 -20 -1 -27 10 -27 10 0 18 13 23 35 3 19 11
38 16 41 5 3 27 -12 49 -35 l41 -41 215 0 c119 0 214 2 212 5 -3 2 -23 5 -44
6 -55 3 -57 6 -32 36 55 67 77 81 123 79 24 -1 45 3 47 9 2 5 12 1 22 -9 18
-17 18 -19 2 -31 -9 -7 -17 -16 -17 -20 0 -4 -7 -13 -16 -20 -16 -11 -16 -12
0 -18 10 -4 16 -1 16 8 0 18 37 38 56 31 10 -4 11 -12 5 -28 -10 -28 -4 -48
15 -48 15 0 17 9 14 48 -1 16 4 22 19 22 12 0 21 -4 21 -9 0 -19 47 -61 68
-61 16 0 19 5 15 21 -5 19 -3 21 18 17 13 -3 33 -9 44 -13 14 -5 16 -4 6 3 -7
5 -11 16 -8 23 3 9 10 2 18 -18 l13 -33 106 0 c67 0 110 4 118 12 8 8 15 8 24
1 7 -6 50 -11 96 -12 66 -1 84 1 88 14 3 8 11 12 16 9 6 -4 5 -10 -3 -15 -8
-5 44 -9 127 -9 96 0 144 4 152 12 7 7 12 8 12 3 0 -6 11 -11 25 -11 21 -2 24
1 14 12 -6 8 -18 14 -25 14 -18 0 2 46 24 55 23 8 39 -12 23 -27 -11 -10 -13
-10 -7 0 4 6 3 12 -2 12 -6 0 -13 -7 -16 -16 -9 -22 -8 -24 9 -24 8 0 15 -7
15 -15 0 -8 5 -15 11 -15 12 0 54 49 54 62 0 5 5 8 10 8 6 1 12 -14 15 -32 5
-30 8 -33 44 -36 24 -2 42 2 48 10 8 10 11 10 15 1 3 -9 28 -13 74 -13 l69 0
0 522 c0 287 -2 519 -4 517 -3 -3 -13 -318 -16 -479 0 -9 -9 -16 -19 -16 -15
0 -17 4 -10 13 11 12 2 100 -11 118 -4 6 -11 30 -15 55 -7 44 -21 64 -37 54
-4 -3 -8 -10 -8 -15 0 -6 5 -7 10 -4 12 7 13 -15 2 -30 -4 -5 -17 -11 -29 -12
-17 -2 -23 2 -23 16 0 11 -6 22 -12 24 -7 3 -1 6 14 6 18 1 29 8 33 22 4 11 5
23 2 26 -10 10 -46 -8 -50 -25 -3 -11 -7 -6 -12 16 -4 17 -11 32 -15 32 -15 0
3 57 22 69 17 11 22 10 29 -1 5 -8 7 2 5 27 -5 57 -16 85 -32 85 -8 0 -14 6
-14 14 0 21 -28 28 -35 8z m-2895 -342 c18 0 40 -44 40 -80 0 -34 -46 -77 -82
-76 -34 1 -68 44 -68 86 0 38 44 83 75 75 11 -3 27 -5 35 -5z m-636 -62 c6
-10 26 -60 26 -67 0 -12 -53 -67 -72 -74 -9 -3 -19 -1 -22 6 -3 9 -8 8 -15 -3
-8 -11 -11 -12 -11 -2 0 7 -7 21 -16 29 -11 12 -14 26 -9 52 10 52 32 71 78
66 22 -2 40 -5 41 -7z m-318 -260 c3 -13 15 -35 26 -50 15 -22 17 -32 8 -49
-14 -25 -13 -26 28 -34 22 -4 32 -1 32 7 0 7 5 5 11 -6 9 -15 13 -16 20 -5 7
11 11 11 21 1 10 -10 7 -17 -13 -36 -14 -13 -36 -27 -50 -30 -13 -4 -19 -4
-13 1 9 6 9 11 0 18 -16 14 -38 13 -44 -4 -3 -9 1 -11 15 -7 15 5 19 1 18 -20
0 -23 -5 -27 -32 -30 -31 -4 -41 4 -26 20 15 14 19 78 7 98 -4 6 -10 5 -16 -3
-6 -10 -7 -7 -3 9 4 15 2 24 -9 28 -17 7 -10 34 10 34 10 0 9 7 -4 30 -9 16
-21 30 -25 30 -5 0 -5 5 -2 10 11 18 33 11 41 -12z m2638 -6 c2 -4 1 -14 -3
-21 -10 -15 22 -52 48 -56 12 -1 16 -13 16 -48 1 -26 -3 -47 -7 -47 -4 0 -8 5
-8 12 0 6 -3 9 -6 5 -3 -3 -19 9 -34 26 -25 28 -30 30 -35 15 -4 -10 1 -29 14
-47 27 -38 27 -41 -9 -37 -16 2 -30 -1 -30 -5 0 -10 -29 -7 -47 4 -7 5 -17 5
-23 2 -6 -4 -10 5 -10 19 0 15 -6 26 -13 26 -8 0 -22 9 -33 21 -15 17 -16 22
-4 29 9 6 17 5 21 -2 6 -9 11 -8 22 0 16 14 38 12 49 -3 5 -6 8 -5 8 3 0 8 5
10 13 5 32 -20 59 -4 37 22 -16 19 -4 85 15 85 8 0 16 -4 19 -8z"></path>
</g>
</svg><style>@media (prefers-color-scheme: light) { :root { filter: none; } }
@media (prefers-color-scheme: dark) { :root { filter: invert(100%); } }
</style></svg>